<svg width="27" height="25" viewBox="0 0 27 25" fill="none" xmlns="http://www.w3.org/2000/svg">
<rect width="27" height="25" transform="matrix(-1 0 0 1 27 0)" fill="#F0F0F0"/>
<path d="M11.2221 8.26309C11.1517 8.34595 11.0958 8.44436 11.0577 8.5527C11.0196 8.66105 11 8.77719 11 8.89448C11 9.01178 11.0196 9.12792 11.0577 9.23626C11.0958 9.34461 11.1517 9.44302 11.2221 9.52588L14.1682 13.0008L11.2221 16.4757C11.0801 16.6431 11.0003 16.8703 11.0003 17.1071C11.0003 17.3439 11.0801 17.571 11.2221 17.7385C11.364 17.9059 11.5566 18 11.7574 18C11.9582 18 12.1507 17.9059 12.2927 17.7385L15.7779 13.6277C15.8483 13.5448 15.9042 13.4464 15.9423 13.3381C15.9804 13.2297 16 13.1136 16 12.9963C16 12.879 15.9804 12.7629 15.9423 12.6545C15.9042 12.5462 15.8483 12.4478 15.7779 12.3649L12.2927 8.25414C12.0042 7.91381 11.5182 7.91381 11.2221 8.26309Z" fill="#05111B"/>
</svg>
